<svg xmlns="http://www.w3.org/2000/svg" xmlns:xlink="http://www.w3.org/1999/xlink" viewBox="0 0 430 430" width="430" height="430" preserveAspectRatio="xMidYMid meet" style="width: 100%; height: 100%; transform: translate3d(0px, 0px, 0px); content-visibility: visible;"><defs><clipPath id="__lottie_element_2"><rect width="430" height="430" x="0" y="0"/></clipPath><clipPath id="__lottie_element_4"><path d="M0,0 L430,0 L430,430 L0,430z"/></clipPath><clipPath id="__lottie_element_251"><path d="M0,0 L430,0 L430,430 L0,430z"/></clipPath><clipPath id="__lottie_element_261"><path d="M0,0 L430,0 L430,430 L0,430z"/></clipPath></defs><g clip-path="url(#__lottie_element_2)"><g clip-path="url(#__lottie_element_4)" transform="matrix(1,0,0,1,0,0)" opacity="1" style="display: block;"><g transform="matrix(1,0,0,1,-35,-56.23774719238281)" opacity="1" style="display: block;"><g opacity="1" transform="matrix(1,0,0,1,250,276.6889953613281)"><path class="secondary" fill="rgb(235,230,239)" fill-opacity="1" d=" M0,133.2740020751953 C0,133.2740020751953 0,133.2740020751953 0,133.2740020751953 C-46.05400085449219,133.2740020751953 -82.64800262451172,94.5770034790039 -80.0790023803711,48.595001220703125 C-80.0790023803711,48.595001220703125 -73.41400146484375,-70.68699645996094 -73.41400146484375,-70.68699645996094 C-71.4520034790039,-105.80400085449219 -42.40299987792969,-133.2740020751953 -7.23199987411499,-133.2740020751953 C-7.23199987411499,-133.2740020751953 7.232999801635742,-133.2740020751953 7.232999801635742,-133.2740020751953 C42.40399932861328,-133.2740020751953 71.4520034790039,-105.8030014038086 73.41400146484375,-70.68699645996094 C73.41400146484375,-70.68699645996094 80.0790023803711,48.595001220703125 80.0790023803711,48.595001220703125 C82.64800262451172,94.5770034790039 46.05400085449219,133.2740020751953 0,133.2740020751953z"/></g><g opacity="0.5" transform="matrix(1,0,0,1,250,204.30599975585938)" style="mix-blend-mode: multiply;"><path class="secondary" fill="rgb(235,230,239)" fill-opacity="1" d=" M-75.53199768066406,39.60300064086914 C-45.44900131225586,67.98699951171875 45.44900131225586,67.98699951171875 75.53199768066406,39.60300064086914 C75.53199768066406,39.60300064086914 73.41400146484375,1.6950000524520874 73.41400146484375,1.6950000524520874 C71.4520034790039,-33.42100143432617 42.40399932861328,-60.89099884033203 7.232999801635742,-60.89099884033203 C7.232999801635742,-60.89099884033203 -7.23199987411499,-60.89099884033203 -7.23199987411499,-60.89099884033203 C-42.40299987792969,-60.89099884033203 -71.4520034790039,-33.422000885009766 -73.41400146484375,1.6950000524520874 C-73.41400146484375,1.6950000524520874 -75.53199768066406,39.60300064086914 -75.53199768066406,39.60300064086914z"/></g><g opacity="0.5" transform="matrix(1,0,0,1,212.23399353027344,204.30599975585938)" style="mix-blend-mode: multiply;"><path class="secondary" fill="rgb(235,230,239)" fill-opacity="1" d=" M30.534000396728516,-60.89099884033203 C-4.63700008392334,-60.89099884033203 -33.68600082397461,-33.422000885009766 -35.64799880981445,1.6950000524520874 C-35.64799880981445,1.6950000524520874 -37.76599884033203,39.60300064086914 -37.76599884033203,39.60300064086914 C-22.724000930786133,53.79499816894531 7.520999908447266,60.89099884033203 37.76599884033203,60.89099884033203 C37.76599884033203,60.89099884033203 37.76599884033203,-60.89099884033203 37.76599884033203,-60.89099884033203 C37.76599884033203,-60.89099884033203 30.534000396728516,-60.89099884033203 30.534000396728516,-60.89099884033203z"/></g><g opacity="0.5" transform="matrix(1,0,0,1,214.2030029296875,275.60101318359375)" style="mix-blend-mode: multiply;"><path class="secondary" fill="rgb(235,230,239)" fill-opacity="1" d=" M-28.19700050354004,54.06999969482422 C-28.19700050354004,54.06999969482422 -21.3700008392334,-68.0999984741211 -21.3700008392334,-68.0999984741211 C-19.398000717163086,-103.39600372314453 9.295999526977539,-131.1300048828125 44.40999984741211,-132.1529998779297 C43.95000076293945,-132.16200256347656 43.492000579833984,-132.18600463867188 43.02899932861328,-132.18600463867188 C43.02899932861328,-132.18600463867188 28.56399917602539,-132.18600463867188 28.56399917602539,-132.18600463867188 C-6.60699987411499,-132.18600463867188 -35.654998779296875,-104.71600341796875 -37.617000579833984,-69.5989990234375 C-37.617000579833984,-69.5989990234375 -44.28200149536133,49.68299865722656 -44.28200149536133,49.68299865722656 C-46.49300003051758,89.2509994506836 -19.70400047302246,123.4219970703125 17.158000946044922,132.18600463867188 C-11.185999870300293,118.0250015258789 -30.091999053955078,87.98300170898438 -28.19700050354004,54.06999969482422z"/></g></g><g transform="matrix(1,0,0,1,-35.5,-74.8958740234375)" opacity="1" style="display: none;"><g opacity="1" transform="matrix(1,0,0,1,250.83200073242188,209.4040069580078)"><path class="tertiary" fill="rgb(100,110,120)" fill-opacity="1" d=" M0,28.052000045776367 C0,28.052000045776367 0,28.052000045776367 0,28.052000045776367 C6.934999942779541,28.052000045776367 12.555999755859375,22.430999755859375 12.555999755859375,15.496000289916992 C12.555999755859375,15.496000289916992 12.555999755859375,-15.496000289916992 12.555999755859375,-15.496000289916992 C12.555999755859375,-22.430999755859375 6.934999942779541,-28.052000045776367 0,-28.052000045776367 C0,-28.052000045776367 0,-28.052000045776367 0,-28.052000045776367 C-6.934999942779541,-28.052000045776367 -12.555999755859375,-22.430999755859375 -12.555999755859375,-15.496000289916992 C-12.555999755859375,-15.496000289916992 -12.555999755859375,15.496000289916992 -12.555999755859375,15.496000289916992 C-12.555999755859375,22.430999755859375 -6.934999942779541,28.052000045776367 0,28.052000045776367z"/></g><g opacity="0.5" transform="matrix(1,0,0,1,246.0989990234375,209.87600708007812)" style="mix-blend-mode: multiply;"><path class="tertiary" fill="rgb(100,110,120)" fill-opacity="1" d=" M-1.6430000066757202,16.54199981689453 C-1.6430000066757202,16.54199981689453 -1.6430000066757202,-16.54199981689453 -1.6430000066757202,-16.54199981689453 C-1.6430000066757202,-22.200000762939453 2.443000078201294,-27.268999099731445 7.822999954223633,-28.235000610351562 C7.1579999923706055,-28.354000091552734 6.478000164031982,-28.427000045776367 5.7789998054504395,-28.427000045776367 C5.7789998054504395,-28.427000045776367 3.687000036239624,-28.427000045776367 3.687000036239624,-28.427000045776367 C-2.6700000762939453,-28.427000045776367 -7.75600004196167,-22.158000946044922 -7.822999954223633,-16.54199981689453 C-7.822999954223633,-16.54199981689453 -7.761000156402588,16.229000091552734 -7.761000156402588,16.229000091552734 C-7.75600004196167,20.841999053955078 -2.6700000762939453,27.520000457763672 3.687000036239624,27.520000457763672 C3.687000036239624,27.520000457763672 5.7789998054504395,27.520000457763672 5.7789998054504395,27.520000457763672 C6.478000164031982,27.520000457763672 7.1579999923706055,27.447999954223633 7.822999954223633,27.32900047302246 C2.443000078201294,26.363000869750977 -1.6430000066757202,22.200000762939453 -1.6430000066757202,16.54199981689453z"/></g></g><g transform="matrix(1,0,0,1,215,41.00300216674805)" opacity="1" style="display: block;"><g opacity="1" transform="matrix(1,0,0,1,0,0)"><path stroke-linecap="round" stroke-linejoin="round" fill-opacity="0" class="primary" stroke="rgb(102,160,237)" stroke-opacity="1" stroke-width="7" d=" M-25.617000579833984,12.807999610900879 C-25.617000579833984,12.807999610900879 0,-12.807999610900879 0,-12.807999610900879 C0,-12.807999610900879 25.617000579833984,12.807999610900879 25.617000579833984,12.807999610900879"/></g></g><g transform="matrix(1,0,0,1,-35.5,-49.231719970703125)" opacity="1" style="display: block;"><g opacity="1" transform="matrix(1,0,0,1,250.83200073242188,209.4040069580078)"><path class="tertiary" fill="rgb(100,110,120)" fill-opacity="1" d=" M0,37.36000061035156 C0,37.36000061035156 0,37.36000061035156 0,37.36000061035156 C6.934999942779541,37.36000061035156 12.555999755859375,31.73900032043457 12.555999755859375,24.804000854492188 C12.555999755859375,24.804000854492188 12.555999755859375,-6.188000202178955 12.555999755859375,-6.188000202178955 C12.555999755859375,-13.123000144958496 6.934999942779541,-18.743999481201172 0,-18.743999481201172 C0,-18.743999481201172 0,-18.743999481201172 0,-18.743999481201172 C-6.934999942779541,-18.743999481201172 -12.555999755859375,-13.123000144958496 -12.555999755859375,-6.188000202178955 C-12.555999755859375,-6.188000202178955 -12.555999755859375,24.804000854492188 -12.555999755859375,24.804000854492188 C-12.555999755859375,31.73900032043457 -6.934999942779541,37.36000061035156 0,37.36000061035156z"/></g><g opacity="0.5" transform="matrix(1,0,0,1,246.0989990234375,209.87600708007812)" style="mix-blend-mode: multiply;"><path class="tertiary" fill="rgb(100,110,120)" fill-opacity="1" d=" M-1.6430000066757202,25.850000381469727 C-1.6430000066757202,25.850000381469727 -1.6430000066757202,-7.234000205993652 -1.6430000066757202,-7.234000205993652 C-1.6430000066757202,-12.892000198364258 2.443000078201294,-17.586000442504883 7.822999954223633,-18.552000045776367 C7.1579999923706055,-18.67099952697754 6.478000164031982,-18.743999481201172 5.7789998054504395,-18.743999481201172 C5.7789998054504395,-18.743999481201172 3.687000036239624,-18.743999481201172 3.687000036239624,-18.743999481201172 C-2.6700000762939453,-18.743999481201172 -7.822999954223633,-13.590999603271484 -7.822999954223633,-7.234000205993652 C-7.822999954223633,-7.234000205993652 -7.822999954223633,25.850000381469727 -7.822999954223633,25.850000381469727 C-7.822999954223633,32.207000732421875 -2.6700000762939453,37.36000061035156 3.687000036239624,37.36000061035156 C3.687000036239624,37.36000061035156 5.7789998054504395,37.36000061035156 5.7789998054504395,37.36000061035156 C6.478000164031982,37.36000061035156 7.1579999923706055,37.2869987487793 7.822999954223633,37.167999267578125 C2.443000078201294,36.20199966430664 -1.6430000066757202,31.507999420166016 -1.6430000066757202,25.850000381469727z"/></g></g><g transform="matrix(1,0,0,-1,215,397.58197021484375)" opacity="1" style="display: block;"><g opacity="1" transform="matrix(1,0,0,1,0,0)"><path stroke-linecap="round" stroke-linejoin="round" fill-opacity="0" class="primary" stroke="rgb(102,160,237)" stroke-opacity="1" stroke-width="7" d=" M-25.617000579833984,12.807999610900879 C-25.617000579833984,12.807999610900879 0,-12.807999610900879 0,-12.807999610900879 C0,-12.807999610900879 25.617000579833984,12.807999610900879 25.617000579833984,12.807999610900879"/></g></g><g transform="matrix(1,0,0,1,-35,-29.737747192382812)" opacity="1" style="display: block;"><g opacity="1" transform="matrix(1,0,0,1,250,224.47999572753906)"/><g opacity="1" transform="matrix(1,0,0,1,250,182.56100463867188)"/></g><g transform="matrix(1,0,0,1,-35,-29.737747192382812)" opacity="1" style="display: block;"><g opacity="1" transform="matrix(1,0,0,1,250,224.47999572753906)"><path stroke-linecap="round" stroke-linejoin="round" fill-opacity="0" class="primary" stroke="rgb(102,160,237)" stroke-opacity="1" stroke-width="7" d=" M0,158.63900756835938 C0,158.63900756835938 0,158.63900756835938 0,158.63900756835938 C-46.05400085449219,158.63900756835938 -82.64800262451172,119.94300079345703 -80.0790023803711,73.96099853515625 C-80.0790023803711,73.96099853515625 -73.41400146484375,-45.321998596191406 -73.41400146484375,-45.321998596191406 C-72.24099731445312,-66.31600189208984 -61.387001037597656,-84.5770034790039 -45.332000732421875,-95.86900329589844 C-34.53200149536133,-103.46499633789062 -21.37700080871582,-107.90799713134766 -7.23199987411499,-107.90799713134766 C-7.23199987411499,-107.90799713134766 7.232999801635742,-107.90799713134766 7.232999801635742,-107.90799713134766 C42.40399932861328,-107.90799713134766 71.4520034790039,-80.43800354003906 73.41400146484375,-45.321998596191406 C73.41400146484375,-45.321998596191406 80.0790023803711,73.96099853515625 80.0790023803711,73.96099853515625 C82.64800262451172,119.94300079345703 46.05400085449219,158.63900756835938 0,158.63900756835938z M0.07869336009025574,-53.916412353515625 C0.07869336009025574,-53.916412353515625 0,-107.91200256347656 0,-107.91200256347656 M75.53199768066406,-7.414000034332275 C45.44900131225586,20.969999313354492 -45.44900131225586,20.969999313354492 -75.53199768066406,-7.414000034332275 M0,13.869999885559082 C0,13.869999885559082 0.07869336009025574,3.1185882091522217 0.07869336009025574,3.1185882091522217"/></g><g opacity="1" transform="matrix(1,0,0,1,250,182.56100463867188)"><path stroke-linecap="round" stroke-linejoin="round" fill-opacity="0" class="primary" stroke="rgb(102,160,237)" stroke-opacity="1" stroke-width="7" d=" M-0.04730663821101189,44.60258865356445 C-0.04730663821101189,44.60258865356445 0.20469336211681366,44.60258865356445 0.20469336211681366,44.60258865356445 C7.069693565368652,44.60258865356445 12.634693145751953,39.03759002685547 12.634693145751953,32.17258834838867 C12.634693145751953,32.17258834838867 12.634693145751953,0.928588330745697 12.634693145751953,0.928588330745697 C12.634693145751953,-5.9364118576049805 7.069693565368652,-11.501411437988281 0.20469336211681366,-11.501411437988281 C0.20469336211681366,-11.501411437988281 -0.04730663821101189,-11.501411437988281 -0.04730663821101189,-11.501411437988281 C-6.912306785583496,-11.501411437988281 -12.477306365966797,-5.9364118576049805 -12.477306365966797,0.928588330745697 C-12.477306365966797,0.928588330745697 -12.477306365966797,32.17258834838867 -12.477306365966797,32.17258834838867 C-12.477306365966797,39.03759002685547 -6.912306785583496,44.60258865356445 -0.04730663821101189,44.60258865356445z"/></g></g></g><g clip-path="url(#__lottie_element_251)" transform="matrix(1,0,0,1,0,0)" opacity="1" style="display: none;"><g transform="matrix(1,0,0,1,215,41.00299835205078)" opacity="1" style="display: block;"><g opacity="1" transform="matrix(1,0,0,1,0,0)"><path stroke-linecap="round" stroke-linejoin="round" fill-opacity="0" class="primary" stroke="rgb(102,160,237)" stroke-opacity="1" stroke-width="7" d=" M-0.7628193497657776,39.19028091430664 C-0.7628193497657776,39.19028091430664 0,38.427490234375 0,38.427490234375 C0,38.427490234375 0.7628193497657776,39.19028091430664 0.7628193497657776,39.19028091430664"/></g></g><g transform="matrix(1,0,0,-1,215,388.99700927734375)" opacity="1" style="display: block;"><g opacity="1" transform="matrix(1,0,0,1,0,0)"><path stroke-linecap="round" stroke-linejoin="round" fill-opacity="0" class="primary" stroke="rgb(102,160,237)" stroke-opacity="1" stroke-width="7" d=" M-0.7676704525947571,39.19319152832031 C-0.7676704525947571,39.19319152832031 0,38.42457962036133 0,38.42457962036133 C0,38.42457962036133 0.7676704525947571,39.19319152832031 0.7676704525947571,39.19319152832031"/></g></g><g clip-path="url(#__lottie_element_261)" transform="matrix(1,0,0,1,0,-40)" opacity="1" style="display: block;"><g transform="matrix(1,0,0,1,-35,-21.5)" opacity="1" style="display: block;"><g opacity="1" transform="matrix(1,0,0,1,250,276.6889953613281)"><path class="secondary" fill="rgb(235,230,239)" fill-opacity="1" d=" M0,133.2740020751953 C0,133.2740020751953 0,133.2740020751953 0,133.2740020751953 C-46.05400085449219,133.2740020751953 -82.51718139648438,94.58403015136719 -79.94818115234375,48.602027893066406 C-79.94818115234375,48.602027893066406 -73.4131851196289,-68.39613342285156 -73.4131851196289,-68.39613342285156 C-71.45118713378906,-103.51313781738281 -42.402183532714844,-130.98313903808594 -7.231184959411621,-130.98313903808594 C-7.231184959411621,-130.98313903808594 7.2338151931762695,-130.98313903808594 7.2338151931762695,-130.98313903808594 C42.404815673828125,-130.98313903808594 71.45281219482422,-103.51213836669922 73.4148178100586,-68.39613342285156 C73.4148178100586,-68.39613342285156 79.93927001953125,48.63013458251953 79.93927001953125,48.63013458251953 C82.50827026367188,94.61213684082031 46.05400085449219,133.2740020751953 0,133.2740020751953z"/></g><g opacity="0.5" transform="matrix(1,0,0,1,250,204.30599975585938)" style="mix-blend-mode: multiply;"><path class="secondary" fill="rgb(235,230,239)" fill-opacity="1" d=" M-75.53118133544922,41.893863677978516 C-45.448184967041016,70.27786254882812 45.44981384277344,70.27786254882812 75.5328140258789,41.893863677978516 C75.5328140258789,41.893863677978516 73.4148178100586,3.98586368560791 73.4148178100586,3.98586368560791 C71.45281219482422,-31.130136489868164 42.404815673828125,-58.600135803222656 7.2338151931762695,-58.600135803222656 C7.2338151931762695,-58.600135803222656 -7.231184959411621,-58.600135803222656 -7.231184959411621,-58.600135803222656 C-42.402183532714844,-58.600135803222656 -71.45118713378906,-31.131135940551758 -73.4131851196289,3.98586368560791 C-73.4131851196289,3.98586368560791 -75.53118133544922,41.893863677978516 -75.53118133544922,41.893863677978516z"/></g><g opacity="0.5" transform="matrix(1,0,0,1,212.23399353027344,204.30599975585938)" style="mix-blend-mode: multiply;"><path class="secondary" fill="rgb(235,230,239)" fill-opacity="1" d=" M30.534814834594727,-58.600135803222656 C-4.6361846923828125,-58.600135803222656 -33.685157775878906,-31.131135940551758 -35.64715576171875,3.98586368560791 C-35.64715576171875,3.98586368560791 -37.76518630981445,41.893863677978516 -37.76518630981445,41.893863677978516 C-22.72318458557129,56.08586502075195 7.521815299987793,63.181861877441406 37.766815185546875,63.181861877441406 C37.766815185546875,63.181861877441406 37.766815185546875,-58.600135803222656 37.766815185546875,-58.600135803222656 C37.766815185546875,-58.600135803222656 30.534814834594727,-58.600135803222656 30.534814834594727,-58.600135803222656z"/></g><g opacity="0.5" transform="matrix(1,0,0,1,214.2030029296875,275.60101318359375)" style="mix-blend-mode: multiply;"><path class="secondary" fill="rgb(235,230,239)" fill-opacity="1" d=" M-28.06615447998047,54.0770263671875 C-28.06615447998047,54.0770263671875 -21.369184494018555,-65.80913543701172 -21.369184494018555,-65.80913543701172 C-19.397184371948242,-101.10513305664062 9.296814918518066,-128.83914184570312 44.41081619262695,-129.8621368408203 C43.95081329345703,-129.8711395263672 43.49284362792969,-129.8951416015625 43.029842376708984,-129.8951416015625 C43.029842376708984,-129.8951416015625 28.564844131469727,-129.8951416015625 28.564844131469727,-129.8951416015625 C-6.606156826019287,-129.8951416015625 -35.6541862487793,-102.42513275146484 -37.61618423461914,-67.30813598632812 C-37.61618423461914,-67.30813598632812 -44.151180267333984,49.690025329589844 -44.151180267333984,49.690025329589844 C-46.3621826171875,89.25802612304688 -19.70400047302246,123.4219970703125 17.158000946044922,132.18600463867188 C-11.185999870300293,118.0250015258789 -29.961153030395508,87.99002838134766 -28.06615447998047,54.0770263671875z"/></g></g><g transform="matrix(1,0,0,1,-35.5,-21.5)" opacity="1" style="display: block;"><g opacity="1" transform="matrix(1,0,0,1,250.83200073242188,209.4040069580078)"><path class="tertiary" fill="rgb(100,110,120)" fill-opacity="1" d=" M0.001574090332724154,30.342863082885742 C0.001574090332724154,30.342863082885742 0.001574090332724154,30.342863082885742 0.001574090332724154,30.342863082885742 C6.9365739822387695,30.342863082885742 12.557574272155762,24.72186279296875 12.557574272155762,17.786863327026367 C12.557574272155762,17.786863327026367 12.557574272155762,-13.2051362991333 12.557574272155762,-13.2051362991333 C12.557574272155762,-20.14013671875 6.9365739822387695,-25.761137008666992 0.001574090332724154,-25.761137008666992 C0.001574090332724154,-25.761137008666992 0.001574090332724154,-25.761137008666992 0.001574090332724154,-25.761137008666992 C-6.9334259033203125,-25.761137008666992 -12.554426193237305,-20.14013671875 -12.554426193237305,-13.2051362991333 C-12.554426193237305,-13.2051362991333 -12.554426193237305,17.786863327026367 -12.554426193237305,17.786863327026367 C-12.554426193237305,24.72186279296875 -6.9334259033203125,30.342863082885742 0.001574090332724154,30.342863082885742z"/></g><g opacity="0.5" transform="matrix(1,0,0,1,246.0989990234375,209.87600708007812)" style="mix-blend-mode: multiply;"><path class="tertiary" fill="rgb(100,110,120)" fill-opacity="1" d=" M-1.6414259672164917,18.832862854003906 C-1.6414259672164917,18.832862854003906 -1.6414259672164917,-14.251136779785156 -1.6414259672164917,-14.251136779785156 C-1.6414259672164917,-19.909135818481445 2.4445741176605225,-24.97813606262207 7.824573993682861,-25.944135665893555 C7.159574031829834,-26.06313705444336 6.479574203491211,-26.136137008666992 5.780574321746826,-26.136137008666992 C5.780574321746826,-26.136137008666992 3.6885740756988525,-26.136137008666992 3.6885740756988525,-26.136137008666992 C-2.6684257984161377,-26.136137008666992 -7.754426002502441,-19.867136001586914 -7.821425914764404,-14.251136779785156 C-7.821425914764404,-14.251136779785156 -7.759426116943359,18.51986312866211 -7.759426116943359,18.51986312866211 C-7.754426002502441,23.132863998413086 -2.6684257984161377,29.810863494873047 3.6885740756988525,29.810863494873047 C3.6885740756988525,29.810863494873047 5.780574321746826,29.810863494873047 5.780574321746826,29.810863494873047 C6.479574203491211,29.810863494873047 7.159574031829834,29.738862991333008 7.824573993682861,29.619863510131836 C2.4445741176605225,28.65386390686035 -1.6414259672164917,24.490863800048828 -1.6414259672164917,18.832862854003906z"/></g></g><g transform="matrix(0.8299999833106995,0,0,0.8299999833106995,7.5,48.300018310546875)" opacity="1" style="display: block;"><g opacity="1" transform="matrix(1,0,0,1,0,0)"><path stroke-linecap="round" stroke-linejoin="round" fill-opacity="0" class="primary" stroke="rgb(102,160,237)" stroke-opacity="1" stroke-width="7" d="M0 0"/></g><g opacity="1" transform="matrix(1,0,0,1,250,310.3699951171875)"><path stroke-linecap="round" stroke-linejoin="round" fill-opacity="0" class="primary" stroke="rgb(102,160,237)" stroke-opacity="1" stroke-width="7" d=" M-0.007448820397257805,-173.17445373535156 C-0.007448820397257805,-173.17445373535156 -0.007448820397257805,-217.762451171875 -0.007448820397257805,-217.762451171875 M-0.007448820397257805,-71.45245361328125 C-0.007448820397257805,-71.45245361328125 -0.007448820397257805,-103.77845001220703 -0.007448820397257805,-103.77845001220703 M-90.75244903564453,-97.02245330810547 C-54.60944747924805,-62.921451568603516 54.59455108642578,-62.921451568603516 90.737548828125,-97.02245330810547 M90.737548828125,-97.02245330810547 C90.737548828125,-97.02245330810547 96.04637145996094,-2.0060815811157227 96.04637145996094,-2.0060815811157227 C99.13337707519531,53.237918853759766 55.33000183105469,99.7490005493164 0,99.7490005493164 C0,99.7490005493164 0,99.7490005493164 0,99.7490005493164 C-55.33000183105469,99.7490005493164 -99.15093994140625,53.237918853759766 -96.0639419555664,-2.0060815811157227 C-96.0639419555664,-2.0060815811157227 -90.75244903564453,-97.02245330810547 -90.75244903564453,-97.02245330810547 M-90.75244903564453,-97.02245330810547 C-90.75244903564453,-97.02245330810547 -88.20745086669922,-142.56544494628906 -88.20745086669922,-142.56544494628906 C-85.85044860839844,-184.75445556640625 -50.95145034790039,-217.75845336914062 -8.696449279785156,-217.75845336914062 C-8.696449279785156,-217.75845336914062 -0.007448820397257805,-217.7574462890625 -0.007448820397257805,-217.7574462890625 M-0.007448820397257805,-217.7574462890625 C-0.007448820397257805,-217.7574462890625 8.68157958984375,-217.7574462890625 8.68157958984375,-217.7574462890625 C50.936580657958984,-217.7574462890625 85.83557891845703,-184.75445556640625 88.19258117675781,-142.56544494628906 C88.19258117675781,-142.56544494628906 90.737548828125,-97.02245330810547 90.737548828125,-97.02245330810547"/></g><g opacity="1" transform="matrix(1,0,0,1,250,169.16600036621094)"><path stroke-linecap="round" stroke-linejoin="round" fill-opacity="0" class="primary" stroke="rgb(102,160,237)" stroke-opacity="1" stroke-width="7" d=" M-1.2644487619400024,36.428550720214844 C-1.2644487619400024,36.428550720214844 1.2495511770248413,36.428550720214844 1.2495511770248413,36.428550720214844 C8.886550903320312,36.428550720214844 15.077550888061523,30.237548828125 15.077550888061523,22.600549697875977 C15.077550888061523,22.600549697875977 15.077550888061523,-17.147451400756836 15.077550888061523,-17.147451400756836 C15.077550888061523,-24.78445053100586 8.886550903320312,-30.97545051574707 1.2495511770248413,-30.97545051574707 C1.2495511770248413,-30.97545051574707 -1.2644487619400024,-30.97545051574707 -1.2644487619400024,-30.97545051574707 C-8.901449203491211,-30.97545051574707 -15.092449188232422,-24.78445053100586 -15.092449188232422,-17.147451400756836 C-15.092449188232422,-17.147451400756836 -15.092449188232422,22.600549697875977 -15.092449188232422,22.600549697875977 C-15.092449188232422,30.237548828125 -8.901449203491211,36.428550720214844 -1.2644487619400024,36.428550720214844z"/></g></g></g></g></g></svg>